<mxfile host="Electron" modified="2024-02-09T14:54:19.362Z" agent="Mozilla/5.0 (Windows NT 10.0; Win64; x64) AppleWebKit/537.36 (KHTML, like Gecko) draw.io/23.0.2 Chrome/120.0.6099.109 Electron/28.1.0 Safari/537.36" etag="Ad8E96VdTwjqbu4s1jKQ" version="23.0.2" type="device">
  <diagram name="Sida-1" id="21jB6qQINFGdMGRPbm-u">
    <mxGraphModel dx="1434" dy="844" grid="1" gridSize="10" guides="1" tooltips="1" connect="1" arrows="1" fold="1" page="1" pageScale="1" pageWidth="827" pageHeight="1169" math="0" shadow="0">
      <root>
        <mxCell id="0" />
        <mxCell id="1" parent="0" />
        <mxCell id="KflP9kZiXZsxu_b_8FR9-17" style="edgeStyle=orthogonalEdgeStyle;rounded=0;orthogonalLoop=1;jettySize=auto;html=1;entryX=0.5;entryY=0;entryDx=0;entryDy=0;" edge="1" parent="1" source="KflP9kZiXZsxu_b_8FR9-2" target="KflP9kZiXZsxu_b_8FR9-4">
          <mxGeometry relative="1" as="geometry">
            <mxPoint x="190" y="125" as="targetPoint" />
          </mxGeometry>
        </mxCell>
        <mxCell id="KflP9kZiXZsxu_b_8FR9-2" value="DLC&lt;br&gt;HomePage" style="whiteSpace=wrap;html=1;align=center;" vertex="1" parent="1">
          <mxGeometry x="364" y="100" width="126" height="50" as="geometry" />
        </mxCell>
        <mxCell id="KflP9kZiXZsxu_b_8FR9-19" style="edgeStyle=orthogonalEdgeStyle;rounded=0;orthogonalLoop=1;jettySize=auto;html=1;exitX=0.5;exitY=1;exitDx=0;exitDy=0;entryX=0.5;entryY=0;entryDx=0;entryDy=0;" edge="1" parent="1" source="KflP9kZiXZsxu_b_8FR9-4" target="KflP9kZiXZsxu_b_8FR9-18">
          <mxGeometry relative="1" as="geometry" />
        </mxCell>
        <mxCell id="KflP9kZiXZsxu_b_8FR9-4" value="Profile" style="swimlane;childLayout=stackLayout;horizontal=1;startSize=50;horizontalStack=0;rounded=1;fontSize=14;fontStyle=0;strokeWidth=2;resizeParent=0;resizeLast=1;shadow=0;dashed=0;align=center;arcSize=4;whiteSpace=wrap;html=1;" vertex="1" parent="1">
          <mxGeometry x="110" y="150" width="160" height="120" as="geometry" />
        </mxCell>
        <mxCell id="KflP9kZiXZsxu_b_8FR9-5" value="+Profilbild&lt;br&gt;+Youtube Video&lt;br&gt;+Video Text" style="align=left;strokeColor=none;fillColor=none;spacingLeft=4;fontSize=12;verticalAlign=top;resizable=0;rotatable=0;part=1;html=1;" vertex="1" parent="KflP9kZiXZsxu_b_8FR9-4">
          <mxGeometry y="50" width="160" height="70" as="geometry" />
        </mxCell>
        <mxCell id="KflP9kZiXZsxu_b_8FR9-6" value="" style="verticalLabelPosition=bottom;verticalAlign=top;html=1;shape=mxgraph.basic.smiley" vertex="1" parent="1">
          <mxGeometry x="377" width="100" height="100" as="geometry" />
        </mxCell>
        <mxCell id="KflP9kZiXZsxu_b_8FR9-18" value="Object" style="html=1;whiteSpace=wrap;" vertex="1" parent="1">
          <mxGeometry x="40" y="320" width="110" height="50" as="geometry" />
        </mxCell>
      </root>
    </mxGraphModel>
  </diagram>
</mxfile>
